<?xml version="1.0" encoding="UTF-8"?>
<!-- Fuel nozzle icon for Mybenzin. Uses currentColor for easy theming. -->
<svg xmlns="http://www.w3.org/2000/svg" width="512" height="512" viewBox="0 0 24 24" fill="none" stroke="currentColor" stroke-width="1.8" stroke-linecap="round" stroke-linejoin="round" aria-hidden="true">
  <!-- Handle -->
  <path d="M8.5 12.5l3-3a2 2 0 0 1 2.83 0l1.17 1.17a2 2 0 0 1 0 2.83l-2 2"/>
  <!-- Trigger -->
  <path d="M9.25 11.75l1 1"/>
  <!-- Nozzle body -->
  <path d="M15.5 8.5l4-4"/>
  <path d="M19.5 4.5l1.8 1.8c.44.44.44 1.16 0 1.6l-1.3 1.3"/>
  <!-- Hose -->
  <path d="M10.5 13.5c-1.2 1.2-2.5 2-4 2H5a2 2 0 0 1-2-2V11"/>
  <!-- Droplet -->
  <path d="M18.2 13.2c.6.6.6 1.6 0 2.2a1.56 1.56 0 0 1-2.2 0c-.6-.6-.6-1.6 0-2.2.5-.5 1.7-1.9 1.7-1.9s1.1 1.4 1.5 1.9z" fill="currentColor" stroke="none"/>
</svg>